<?xml version="1.0" standalone="no"?>
<!DOCTYPE svg PUBLIC "-//W3C//DTD SVG 20010904//EN"
 "http://www.w3.org/TR/2001/REC-SVG-20010904/DTD/svg10.dtd">
<svg version="1.0" xmlns="http://www.w3.org/2000/svg"
 width="920.000000pt" height="920.000000pt" viewBox="0 0 920.000000 920.000000"
 preserveAspectRatio="xMidYMid meet">
<metadata>
Created by potrace 1.11, written by Peter Selinger 2001-2013
</metadata>
<g transform="translate(0.000000,920.000000) scale(0.100000,-0.100000)"
fill="#000000" stroke="none">
<path d="M929 9156 c-2 -3 -24 -7 -49 -9 -25 -3 -46 -6 -47 -7 -3 -3 -2 -2
-58 -15 -22 -4 -43 -8 -47 -7 -5 1 -8 -2 -8 -6 0 -4 -9 -8 -20 -9 -26 -2 -230
-103 -230 -114 0 -5 -5 -9 -11 -9 -7 0 -37 -21 -68 -47 -189 -157 -299 -333
-367 -583 -17 -61 -18 -262 -21 -3715 -1 -2365 1 -3668 8 -3700 5 -27 12 -63
15 -80 7 -47 43 -155 66 -199 12 -23 21 -43 21 -46 0 -3 7 -16 15 -30 136
-227 304 -376 526 -464 77 -31 69 -29 191 -55 89 -20 146 -20 3755 -20 2455 0
3682 3 3715 10 49 10 86 18 115 24 8 2 16 4 18 5 1 2 5 3 10 4 83 19 312 135
312 159 0 4 6 7 14 7 18 0 206 188 206 206 0 8 4 14 8 14 22 0 143 240 157
310 1 3 4 14 8 25 3 11 9 34 12 50 3 17 9 46 13 65 4 19 7 1680 7 3690 0 2996
-2 3664 -13 3706 -7 29 -14 58 -15 65 -2 8 -6 20 -10 27 -5 6 -6 12 -3 12 20
0 -86 217 -148 304 -69 97 -233 256 -265 256 -6 0 -11 4 -11 8 0 19 -222 119
-305 137 -158 35 -49 34 -3831 35 -2013 0 -3663 -2 -3665 -4z"/>
</g>
</svg>
