<svg id='krypton' viewBox="0 0 80 25" fill="none" xmlns="http://www.w3.org/2000/svg">
    <path d="M7.429 10.229L11.286 6.163C11.856 5.574 12.179 5.365 12.996 5.327V4.662H8.74V5.327C9.861 5.384 10.146 5.498 10.146 5.821C10.146 6.087 9.937 6.353 9.671 6.619L5.035 11.445L8.322 16.081C8.835 16.822 9.424 17.544 9.975 18H13.604V17.335C12.635 17.278 12.293 16.993 11.533 15.967L7.429 10.229ZM4.826 6.638C4.826 5.593 5.016 5.479 6.346 5.327V4.662H0.513V5.327C1.843 5.479 2.033 5.593 2.033 6.638V16.024C2.033 17.069 1.843 17.183 0.513 17.335V18H6.346V17.335C5.016 17.183 4.826 17.069 4.826 16.024V6.638Z" fill="currentColor"/>
    <path d="M17.8186 11.141C18.7876 10.172 19.7186 10.115 20.8966 10.115H21.2576V8.063C21.1056 7.873 20.8206 7.74 20.4216 7.74C19.3006 7.74 18.7306 8.481 17.8186 10.552L17.8946 7.74H17.4576L14.0566 8.785V9.146L15.1966 9.811V16.537C15.1966 17.202 14.8926 17.316 13.9996 17.373V18H19.4336V17.373C18.2556 17.278 17.8186 17.164 17.8186 16.385V11.141Z" fill="currentColor"/>
    <path d="M27.8884 15.359L25.6084 9.735C25.5324 9.507 25.4944 9.355 25.4944 9.203C25.4944 8.766 25.8174 8.671 26.7864 8.557V7.93H21.6184V8.557C22.3024 8.747 22.4164 8.88 22.5874 9.279L26.6724 18.361L26.3494 19.178C25.9504 20.223 25.3234 20.508 24.2974 20.508C23.7464 20.508 23.4044 20.432 23.0054 20.337V21.306C23.1954 21.857 23.8224 22.18 24.4684 22.18C25.7034 22.18 26.3494 21.344 26.9764 19.805L31.1564 9.279C31.3274 8.88 31.4604 8.747 32.1254 8.557V7.93H28.8574V8.557C29.8454 8.671 30.1494 8.766 30.1494 9.203C30.1494 9.355 30.1114 9.507 30.0164 9.735L27.8884 15.359Z" fill="currentColor"/>
    <path d="M38.0245 17.468C36.8655 17.468 36.2955 16.727 36.2955 15.283V10.001C36.7325 9.602 37.3405 9.336 37.9675 9.336C39.7535 9.336 40.6085 10.951 40.6085 13.288C40.6085 15.625 39.6395 17.468 38.0245 17.468ZM33.6545 20.565C33.6545 21.23 33.3505 21.344 32.4765 21.401V22.028H37.8535V21.401C36.6565 21.306 36.2955 21.23 36.2955 20.508V17.658C36.7135 18.019 37.4165 18.19 38.1955 18.19C41.0265 18.19 43.2685 16.081 43.2685 12.357C43.2685 9.431 41.8055 7.74 39.4875 7.74C37.9675 7.74 36.9225 8.576 36.2955 9.526L36.3715 7.74H35.9155L32.5145 8.785V9.146L33.6545 9.811V20.565Z" fill="currentColor"/>
    <path d="M47.7017 5.46H47.1317C46.3147 6.714 45.1937 7.778 43.8827 8.367V8.804H45.0607V15.245C45.0607 17.373 46.2007 18.19 47.7587 18.19C49.1267 18.19 50.0767 17.506 50.6847 16.556L50.4567 16.214C49.9817 16.575 49.5637 16.746 49.0317 16.746C48.1387 16.746 47.7017 16.252 47.7017 15.093V8.804H50.1717V7.93H47.7017V5.46Z" fill="currentColor"/>
    <path fill-rule="evenodd" clip-rule="evenodd" d="M59.5 0C59.7761 0 60 0.223858 60 0.5V24.5C60 24.7761 59.7761 25 59.5 25C59.2239 25 59 24.7761 59 24.5V0.5C59 0.223858 59.2239 0 59.5 0Z" fill="#0FF4C6"/>
    <path d="M75.809 16.537C75.809 17.202 75.524 17.316 74.65 17.373V18H79.628V17.373C78.754 17.316 78.45 17.202 78.45 16.537V10.837C78.45 8.76601 77.519 7.74001 75.733 7.74001C74.118 7.74001 73.035 8.65201 72.218 9.60201L72.294 7.74001H71.857L68.456 8.78501V9.14601L69.596 9.81101V16.537C69.596 17.202 69.292 17.316 68.399 17.373V18H73.377V17.373C72.503 17.316 72.218 17.202 72.218 16.537V10.115C72.826 9.69701 73.548 9.33601 74.346 9.33601C75.391 9.33601 75.809 9.88701 75.809 10.989V16.537Z" fill="currentColor"/>
    <path d="M58.6051 6.44781C59.1684 6.16593 59.8316 6.16593 60.395 6.44782L64.8902 8.69708C65.5674 9.03596 65.9952 9.72833 65.9952 10.4857V14.5143C65.9952 15.2717 65.5674 15.964 64.8902 16.3029L60.395 18.5522C59.8316 18.8341 59.1684 18.8341 58.6051 18.5522L54.1099 16.3029C53.4326 15.964 53.0048 15.2717 53.0048 14.5143V10.4857C53.0048 9.72833 53.4326 9.03596 54.1099 8.69707L58.6051 6.44781Z" fill="#0FF4C6"/>
</svg>
