<svg width="25" height="25" viewBox="0 0 25 25" fill="none" xmlns="http://www.w3.org/2000/svg">
<path fill-rule="evenodd" clip-rule="evenodd" d="M14 5H11V7.20703C10.584 7.3247 10.188 7.49011 9.81828 7.69695L8.25737 6.13604L6.13605 8.25736L7.69696 9.81827C7.49011 10.1879 7.32471 10.584 7.20703 11H5V14H7.20703C7.32471 14.416 7.49011 14.8121 7.69696 15.1817L6.13604 16.7426L8.25736 18.864L9.81828 17.303C10.188 17.5099 10.584 17.6753 11 17.793V20H14V17.793C14.416 17.6753 14.8121 17.5099 15.1817 17.303L16.7426 18.864L18.864 16.7426L17.303 15.1817C17.5099 14.812 17.6753 14.416 17.793 14H20V11H17.793C17.6753 10.584 17.5099 10.188 17.303 9.81828L18.864 8.25736L16.7426 6.13604L15.1817 7.69696C14.8121 7.49011 14.416 7.32471 14 7.20703V5ZM12.5 14C13.3284 14 14 13.3284 14 12.5C14 11.6716 13.3284 11 12.5 11C11.6716 11 11 11.6716 11 12.5C11 13.3284 11.6716 14 12.5 14Z" fill="black"/>
<path fill-rule="evenodd" clip-rule="evenodd" d="M14 7.20703V5H11V7.20703C10.584 7.3247 10.188 7.49011 9.81828 7.69695L8.25737 6.13604L6.13605 8.25736L7.69696 9.81827C7.49011 10.1879 7.32471 10.584 7.20703 11H5V14H7.20703C7.32471 14.416 7.49011 14.8121 7.69696 15.1817L6.13604 16.7426L8.25736 18.864L9.81828 17.303C10.188 17.5099 10.584 17.6753 11 17.793V20H14V17.793C14.416 17.6753 14.8121 17.5099 15.1817 17.303L16.7426 18.864L18.864 16.7426L17.303 15.1817C17.5099 14.812 17.6753 14.416 17.793 14H20V11H17.793C17.6753 10.584 17.5099 10.188 17.303 9.81828L18.864 8.25736L16.7426 6.13604L15.1817 7.69696C14.8121 7.49011 14.416 7.32471 14 7.20703ZM16.7426 7.55025L15.3538 8.93912L14.6934 8.56964C14.3911 8.40048 14.0676 8.26537 13.7278 8.16928L13 7.96342V6H12V7.96342L11.2722 8.16928C10.9324 8.26537 10.6089 8.40048 10.3066 8.56963L9.64623 8.93912L8.25737 7.55026L7.55026 8.25736L8.93912 9.64622L8.56964 10.3066C8.40048 10.6089 8.26537 10.9324 8.16928 11.2722L7.96342 12H6V13H7.96342L8.16928 13.7278C8.26537 14.0676 8.40048 14.3911 8.56964 14.6934L8.93912 15.3538L7.55026 16.7426L8.25736 17.4497L9.64623 16.0609L10.3066 16.4304C10.6089 16.5995 10.9324 16.7346 11.2722 16.8307L12 17.0366V19H13V17.0366L13.7278 16.8307C14.0676 16.7346 14.3911 16.5995 14.6934 16.4304L15.3538 16.0609L16.7426 17.4498L17.4498 16.7426L16.0609 15.3538L16.4304 14.6934C16.5995 14.3911 16.7346 14.0676 16.8307 13.7278L17.0366 13H19V12H17.0366L16.8307 11.2722C16.7346 10.9324 16.5995 10.6089 16.4304 10.3066L16.0609 9.64623L17.4498 8.25736L16.7426 7.55025ZM15 12.5C15 13.8807 13.8807 15 12.5 15C11.1193 15 10 13.8807 10 12.5C10 11.1193 11.1193 10 12.5 10C13.8807 10 15 11.1193 15 12.5ZM14 12.5C14 13.3284 13.3284 14 12.5 14C11.6716 14 11 13.3284 11 12.5C11 11.6716 11.6716 11 12.5 11C13.3284 11 14 11.6716 14 12.5Z" fill="black"/>
</svg>
