<svg width="25" height="25" viewBox="0 0 25 25" fill="none" xmlns="http://www.w3.org/2000/svg">
<path fill-rule="evenodd" clip-rule="evenodd" d="M12.5 19C16.0899 19 19 16.0899 19 12.5C19 8.91015 16.0899 6 12.5 6C8.91015 6 6 8.91015 6 12.5C6 16.0899 8.91015 19 12.5 19ZM12.5 20C16.6421 20 20 16.6421 20 12.5C20 8.35786 16.6421 5 12.5 5C8.35786 5 5 8.35786 5 12.5C5 16.6421 8.35786 20 12.5 20Z" fill="black"/>
<path fill-rule="evenodd" clip-rule="evenodd" d="M13 13H8V12H13V13Z" fill="black"/>
<path fill-rule="evenodd" clip-rule="evenodd" d="M12 13L12 7L13 7L13 13L12 13Z" fill="black"/>
</svg>
