<svg width="25" height="25" viewBox="0 0 25 25" fill="none" xmlns="http://www.w3.org/2000/svg">
<path d="M8.5332 11.6572C8.36719 11.7809 8.28418 11.9958 8.28418 12.3018C8.28418 12.5947 8.36719 12.8063 8.5332 12.9365C8.70247 13.0667 8.90592 13.1318 9.14355 13.1318C9.37467 13.1318 9.57324 13.0667 9.73926 12.9365C9.90853 12.8063 9.99316 12.5947 9.99316 12.3018C9.99316 11.9958 9.90853 11.7809 9.73926 11.6572C9.57324 11.5335 9.37467 11.4717 9.14355 11.4717C8.90592 11.4717 8.70247 11.5335 8.5332 11.6572Z" fill="black"/>
<path fill-rule="evenodd" clip-rule="evenodd" d="M15.7793 10.9736C15.8704 10.5212 15.916 10.0068 15.916 9.43066C15.916 8.65592 15.8265 7.99512 15.6475 7.44824C15.4684 6.89811 15.1934 6.47819 14.8223 6.18848C14.4544 5.89551 13.9857 5.74902 13.416 5.74902C12.8073 5.74902 12.3206 5.89551 11.9561 6.18848C11.5915 6.48145 11.3278 6.90299 11.165 7.45312C11.0055 8 10.9258 8.65918 10.9258 9.43066C10.9258 10.1956 11.0137 10.8532 11.1895 11.4033C11.3652 11.9502 11.637 12.3701 12.0049 12.6631C12.3727 12.9528 12.8431 13.0977 13.416 13.0977C13.8717 13.0977 14.2591 13.0146 14.5781 12.8486C14.8971 12.6826 15.1543 12.4417 15.3496 12.126C15.5482 11.8102 15.6914 11.4261 15.7793 10.9736ZM12.5127 10.793C12.4541 10.4284 12.4248 9.97428 12.4248 9.43066C12.4248 8.88704 12.4541 8.43294 12.5127 8.06836C12.5745 7.70378 12.6771 7.43034 12.8203 7.24805C12.9635 7.0625 13.1621 6.96973 13.416 6.96973C13.6667 6.96973 13.8636 7.0625 14.0068 7.24805C14.1533 7.43034 14.2575 7.70378 14.3193 8.06836C14.3812 8.43294 14.4121 8.88704 14.4121 9.43066C14.4121 9.97754 14.3812 10.4333 14.3193 10.7979C14.2575 11.1592 14.1533 11.431 14.0068 11.6133C13.8636 11.7923 13.6667 11.8818 13.416 11.8818C13.1621 11.8818 12.9635 11.7907 12.8203 11.6084C12.6771 11.4261 12.5745 11.1543 12.5127 10.793Z" fill="black"/>
<path d="M12 16V14H11V15H10V16H9V17H10V18H11V19H12V17H16V16H12Z" fill="black"/>
</svg>
