<svg width="25" height="25" viewBox="0 0 25 25" fill="none" xmlns="http://www.w3.org/2000/svg">
<path d="M6.17188 11.6572C6.00586 11.7809 5.92285 11.9958 5.92285 12.3018C5.92285 12.5947 6.00586 12.8063 6.17188 12.9365C6.34115 13.0667 6.5446 13.1318 6.78223 13.1318C7.01335 13.1318 7.21191 13.0667 7.37793 12.9365C7.5472 12.8063 7.63184 12.5947 7.63184 12.3018C7.63184 11.9958 7.5472 11.7809 7.37793 11.6572C7.21191 11.5335 7.01335 11.4717 6.78223 11.4717C6.5446 11.4717 6.34115 11.5335 6.17188 11.6572Z" fill="black"/>
<path fill-rule="evenodd" clip-rule="evenodd" d="M13.418 10.9736C13.5091 10.5212 13.5547 10.0068 13.5547 9.43066C13.5547 8.65592 13.4652 7.99512 13.2861 7.44824C13.1071 6.89811 12.832 6.47819 12.4609 6.18848C12.0931 5.89551 11.6243 5.74902 11.0547 5.74902C10.446 5.74902 9.95931 5.89551 9.59473 6.18848C9.23014 6.48145 8.96647 6.90299 8.80371 7.45312C8.64421 8 8.56445 8.65918 8.56445 9.43066C8.56445 10.1956 8.65234 10.8532 8.82812 11.4033C9.00391 11.9502 9.27572 12.3701 9.64355 12.6631C10.0114 12.9528 10.4818 13.0977 11.0547 13.0977C11.5104 13.0977 11.8978 13.0146 12.2168 12.8486C12.5358 12.6826 12.793 12.4417 12.9883 12.126C13.1868 11.8102 13.3301 11.4261 13.418 10.9736ZM10.1514 10.793C10.0928 10.4284 10.0635 9.97428 10.0635 9.43066C10.0635 8.88704 10.0928 8.43294 10.1514 8.06836C10.2132 7.70378 10.3158 7.43034 10.459 7.24805C10.6022 7.0625 10.8008 6.96973 11.0547 6.96973C11.3053 6.96973 11.5023 7.0625 11.6455 7.24805C11.792 7.43034 11.8962 7.70378 11.958 8.06836C12.0199 8.43294 12.0508 8.88704 12.0508 9.43066C12.0508 9.97754 12.0199 10.4333 11.958 10.7979C11.8962 11.1592 11.792 11.431 11.6455 11.6133C11.5023 11.7923 11.3053 11.8818 11.0547 11.8818C10.8008 11.8818 10.6022 11.7907 10.459 11.6084C10.3158 11.4261 10.2132 11.1543 10.1514 10.793Z" fill="black"/>
<path fill-rule="evenodd" clip-rule="evenodd" d="M19.1406 10.9736C19.2318 10.5212 19.2773 10.0068 19.2773 9.43066C19.2773 8.65592 19.1878 7.99512 19.0088 7.44824C18.8298 6.89811 18.5547 6.47819 18.1836 6.18848C17.8158 5.89551 17.347 5.74902 16.7773 5.74902C16.1686 5.74902 15.682 5.89551 15.3174 6.18848C14.9528 6.48145 14.6891 6.90299 14.5264 7.45312C14.3669 8 14.2871 8.65918 14.2871 9.43066C14.2871 10.1956 14.375 10.8532 14.5508 11.4033C14.7266 11.9502 14.9984 12.3701 15.3662 12.6631C15.734 12.9528 16.2044 13.0977 16.7773 13.0977C17.2331 13.0977 17.6204 13.0146 17.9395 12.8486C18.2585 12.6826 18.5156 12.4417 18.7109 12.126C18.9095 11.8102 19.0527 11.4261 19.1406 10.9736ZM15.874 10.793C15.8154 10.4284 15.7861 9.97428 15.7861 9.43066C15.7861 8.88704 15.8154 8.43294 15.874 8.06836C15.9359 7.70378 16.0384 7.43034 16.1816 7.24805C16.3249 7.0625 16.5234 6.96973 16.7773 6.96973C17.028 6.96973 17.2249 7.0625 17.3682 7.24805C17.5146 7.43034 17.6188 7.70378 17.6807 8.06836C17.7425 8.43294 17.7734 8.88704 17.7734 9.43066C17.7734 9.97754 17.7425 10.4333 17.6807 10.7979C17.6188 11.1592 17.5146 11.431 17.3682 11.6133C17.2249 11.7923 17.028 11.8818 16.7773 11.8818C16.5234 11.8818 16.3249 11.7907 16.1816 11.6084C16.0384 11.4261 15.9359 11.1543 15.874 10.793Z" fill="black"/>
<path d="M13 17V19H14V18H15V17H16V16H15V15H14V14H13V16H9V17H13Z" fill="black"/>
</svg>
