<svg width="25" height="25" viewBox="0 0 25 25" fill="none" xmlns="http://www.w3.org/2000/svg">
<path d="M14 6H15V7H16V8H17V9H18V10H19V11H18V12H17V13H15V12H16V11H17V10H16V9H15V8H14V9H13V10H12V8H13V7H14V6Z" fill="currentColor"/>
<path d="M10 18H9V17H8V16H7V15H6V14H7V13H8V12H10V13H9V14H8V15H9V16H10V17H11V16H12V15H13V17H12V18H11V19H10V18Z" fill="currentColor"/>
<path d="M13 12H12V13H11V14H10V15H11V14H12V13H13V12Z" fill="currentColor"/>
<path d="M14 11V12H13V11H14Z" fill="currentColor"/>
<path d="M14 11V10H15V11H14Z" fill="currentColor"/>
</svg>
