<svg width="25" height="25" viewBox="0 0 25 25" fill="none" xmlns="http://www.w3.org/2000/svg">
<path d="M15 6H16V7H15V6Z" fill="currentColor"/>
<path d="M14 8V7H15V8H14Z" fill="currentColor"/>
<path d="M13 9V8H14V9H13Z" fill="currentColor"/>
<path d="M12 10V9H13V10H12Z" fill="currentColor"/>
<path d="M11 11V10H12V11H11Z" fill="currentColor"/>
<path d="M10 12V11H11V12H10Z" fill="currentColor"/>
<path d="M9 13V12H10V13H9Z" fill="currentColor"/>
<path d="M8 14V13H9V14H8Z" fill="currentColor"/>
<path d="M7 15V14H8V15H7Z" fill="currentColor"/>
<path fill-rule="evenodd" clip-rule="evenodd" d="M8 17H7V15H6V19H10V18H11V17H12V16H13V15H14V14H15V13H16V12H17V11H18V10H19V9H18V8H17V7H16V9H15V10H14V11H13V12H12V13H11V14H10V15H9V16H8V17ZM8 17H9V16H10V15H11V14H12V13H13V12H14V11H15V10H16V9H18V10H17V11H16V12H15V13H14V14H13V15H12V16H11V17H10V18H8V17Z" fill="currentColor"/>
</svg>
