<svg width="25" height="25" viewBox="0 0 25 25" fill="none" xmlns="http://www.w3.org/2000/svg">
<path d="M17.4003 15C16.4899 16.7808 14.6373 18 12.5 18C9.63098 18 7.27503 15.8033 7.02242 13H6.01894C6.27426 16.3562 9.07838 19 12.5 19C14.8158 19 16.8487 17.789 18 15.9657V18H19V14H15V15H17.4003Z" fill="currentColor"/>
<path d="M18.9811 12C18.7257 8.64378 15.9216 6 12.5 6C10.1842 6 8.15132 7.21102 7 9.03431L7 7H6V11H10V10H7.59971C8.51006 8.21916 10.3627 7 12.5 7C15.369 7 17.725 9.19675 17.9776 12H18.9811Z" fill="currentColor"/>
</svg>