<svg width="25" height="25" viewBox="0 0 25 25" fill="none" xmlns="http://www.w3.org/2000/svg">
<path fill-rule="evenodd" clip-rule="evenodd" d="M9 8V14.05C9.97956 14.2488 10.7512 15.0204 10.95 16H17V15H16V13H17V14H18V15H19V16H20V17H19V18H18V19H17V20H16V18H17V17H10.95C10.7184 18.1411 9.70948 19 8.5 19C7.11929 19 6 17.8807 6 16.5C6 15.2905 6.85888 14.2816 8 14.05V8H7V9H5V8H6V7H7V6H8L8 5H9V6H10V7H11V8H12V9H10V8H9ZM10 16.5C10 15.6716 9.32843 15 8.5 15C7.67157 15 7 15.6716 7 16.5C7 17.3284 7.67157 18 8.5 18C9.32843 18 10 17.3284 10 16.5Z" fill="currentColor"/>
</svg>
