<svg aria-hidden="true" style="position: absolute; width: 0; height: 0; overflow: hidden;" version="1.1" xmlns="http://www.w3.org/2000/svg" xmlns:xlink="http://www.w3.org/1999/xlink">
    <defs>
        <symbol id='angledown' viewBox="0 0 25 25">
            <path d="M7 11H8V12H9V13H10V14H11V15H12V16H13V15H14V14H15V13H16V12H17V11H18V10H16V11H15V12H14V13H13V14H12V13H11V12H10V11H9V10H7V11Z" fill="currentColor"/>
        </symbol>
        <symbol id='angleleft' viewBox="0 0 25 25">
            <path d="M14 7H15V9H14V10H13V11H12V12H11V13H12V14H13V15H14V16H15V18H14V17H13V16H12V15H11V14H10V13H9V12H10V11H11V10H12V9H13V8H14V7Z" fill="currentColor"/>
        </symbol>
        <symbol id='angleright' viewBox="0 0 25 25">
            <path d="M10 7V9H11V10H12V11H13V12H14V13H13V14H12V15H11V16H10V18H11V17H12V16H13V15H14V14H15V13H16V12H15V11H14V10H13V9H12V8H11V7H10Z" fill="currentColor"/>
        </symbol>
        <symbol id='angleup' viewBox="0 0 25 25">
            <path d="M13 10H12V11H11V12H10V13H9V14H8V15H7V16H9V15H10V14H11V13H12V12H13V13H14V14H15V15H16V16H18V15H17V14H16V13H15V12H14V11H13V10Z" fill="currentColor"/>
        </symbol>
        <symbol id='arrowcalendar' viewBox="0 0 25 25">
            <path fill-rule="evenodd" clip-rule="evenodd" d="M9 8L9 5L10 5L10 8L9 8Z" fill="currentColor"/>
            <path fill-rule="evenodd" clip-rule="evenodd" d="M16 8L16 5L17 5L17 8L16 8Z" fill="currentColor"/>
            <path fill-rule="evenodd" clip-rule="evenodd" d="M20 10H6V9H20V10Z" fill="currentColor"/>
            <path fill-rule="evenodd" clip-rule="evenodd" d="M6 7H20V19H11.6063C11.3468 19.3757 11.0359 19.7124 10.6839 20H20H21V19V7V6H20H6H5V7V12.2007C5.30975 11.9913 5.64498 11.8174 6 11.6847V7Z" fill="currentColor"/>
            <path fill-rule="evenodd" clip-rule="evenodd" d="M11 16H4V15H11V16Z" fill="currentColor"/>
            <path fill-rule="evenodd" clip-rule="evenodd" d="M8.5 11.7929L12.2071 15.5L11.5 16.2071L7.79289 12.5L8.5 11.7929Z" fill="currentColor"/>
            <path fill-rule="evenodd" clip-rule="evenodd" d="M12.2071 15.5L8.49999 19.2071L7.79288 18.5L11.5 14.7929L12.2071 15.5Z" fill="currentColor"/>
        </symbol>
        <symbol id='bar' viewBox="0 0 25 25">
            <path d="M7 10H10V18H7V10Z" fill="currentColor"/>
            <path d="M15 8H18V18H15V8Z" fill="currentColor"/>
            <path d="M11 7H14V18H11V7Z" fill="currentColor"/>
        </symbol>
        <symbol id='blackgear' viewBox="0 0 25 25">
            <path fill-rule="evenodd" clip-rule="evenodd" d="M14 5H11V7.20703C10.584 7.3247 10.188 7.49011 9.81828 7.69695L8.25737 6.13604L6.13605 8.25736L7.69696 9.81827C7.49011 10.1879 7.32471 10.584 7.20703 11H5V14H7.20703C7.32471 14.416 7.49011 14.8121 7.69696 15.1817L6.13604 16.7426L8.25736 18.864L9.81828 17.303C10.188 17.5099 10.584 17.6753 11 17.793V20H14V17.793C14.416 17.6753 14.8121 17.5099 15.1817 17.303L16.7426 18.864L18.864 16.7426L17.303 15.1817C17.5099 14.812 17.6753 14.416 17.793 14H20V11H17.793C17.6753 10.584 17.5099 10.188 17.303 9.81828L18.864 8.25736L16.7426 6.13604L15.1817 7.69696C14.8121 7.49011 14.416 7.32471 14 7.20703V5ZM12.5 14C13.3284 14 14 13.3284 14 12.5C14 11.6716 13.3284 11 12.5 11C11.6716 11 11 11.6716 11 12.5C11 13.3284 11.6716 14 12.5 14Z" fill="currentColor"/>
            <path fill-rule="evenodd" clip-rule="evenodd" d="M14 7.20703V5H11V7.20703C10.584 7.3247 10.188 7.49011 9.81828 7.69695L8.25737 6.13604L6.13605 8.25736L7.69696 9.81827C7.49011 10.1879 7.32471 10.584 7.20703 11H5V14H7.20703C7.32471 14.416 7.49011 14.8121 7.69696 15.1817L6.13604 16.7426L8.25736 18.864L9.81828 17.303C10.188 17.5099 10.584 17.6753 11 17.793V20H14V17.793C14.416 17.6753 14.8121 17.5099 15.1817 17.303L16.7426 18.864L18.864 16.7426L17.303 15.1817C17.5099 14.812 17.6753 14.416 17.793 14H20V11H17.793C17.6753 10.584 17.5099 10.188 17.303 9.81828L18.864 8.25736L16.7426 6.13604L15.1817 7.69696C14.8121 7.49011 14.416 7.32471 14 7.20703ZM16.7426 7.55025L15.3538 8.93912L14.6934 8.56964C14.3911 8.40048 14.0676 8.26537 13.7278 8.16928L13 7.96342V6H12V7.96342L11.2722 8.16928C10.9324 8.26537 10.6089 8.40048 10.3066 8.56963L9.64623 8.93912L8.25737 7.55026L7.55026 8.25736L8.93912 9.64622L8.56964 10.3066C8.40048 10.6089 8.26537 10.9324 8.16928 11.2722L7.96342 12H6V13H7.96342L8.16928 13.7278C8.26537 14.0676 8.40048 14.3911 8.56964 14.6934L8.93912 15.3538L7.55026 16.7426L8.25736 17.4497L9.64623 16.0609L10.3066 16.4304C10.6089 16.5995 10.9324 16.7346 11.2722 16.8307L12 17.0366V19H13V17.0366L13.7278 16.8307C14.0676 16.7346 14.3911 16.5995 14.6934 16.4304L15.3538 16.0609L16.7426 17.4498L17.4498 16.7426L16.0609 15.3538L16.4304 14.6934C16.5995 14.3911 16.7346 14.0676 16.8307 13.7278L17.0366 13H19V12H17.0366L16.8307 11.2722C16.7346 10.9324 16.5995 10.6089 16.4304 10.3066L16.0609 9.64623L17.4498 8.25736L16.7426 7.55025ZM15 12.5C15 13.8807 13.8807 15 12.5 15C11.1193 15 10 13.8807 10 12.5C10 11.1193 11.1193 10 12.5 10C13.8807 10 15 11.1193 15 12.5ZM14 12.5C14 13.3284 13.3284 14 12.5 14C11.6716 14 11 13.3284 11 12.5C11 11.6716 11.6716 11 12.5 11C13.3284 11 14 11.6716 14 12.5Z" fill="currentColor"/>
        </symbol>
        <symbol id='blackstar' viewBox="0 0 25 25">
            <path d="M12.5 5L14.7042 9.46619L19.6329 10.1824L16.0665 13.6588L16.9084 18.5676L12.5 16.25L8.0916 18.5676L8.93353 13.6588L5.36707 10.1824L10.2958 9.46619L12.5 5Z" fill="currentColor"/>
        </symbol>
        <symbol id='calendar' viewBox="0 0 24 24">
            <path fill-rule="evenodd" clip-rule="evenodd" d="M19 7H5V18H19V7ZM5 6H4V7V18V19H5H19H20V18V7V6H19H5Z" fill="currentColor"/>
            <path fill-rule="evenodd" clip-rule="evenodd" d="M8 8V5H9V8H8Z" fill="currentColor"/>
            <path fill-rule="evenodd" clip-rule="evenodd" d="M15 8V5H16V8H15Z" fill="currentColor"/>
            <path d="M11 9H13V11H11V9Z" fill="currentColor"/>
            <path d="M15 9H17V11H15V9Z" fill="currentColor"/>
            <path d="M11 12H13V14H11V12Z" fill="currentColor"/>
            <path d="M7 12H9V14H7V12Z" fill="currentColor"/>
            <path d="M15 12H17V14H15V12Z" fill="currentColor"/>
            <path d="M11 15H13V17H11V15Z" fill="currentColor"/>
            <path d="M7 15H9V17H7V15Z" fill="currentColor"/>
        </symbol>
        <symbol id='camera' viewBox="0 0 25 25">
            <path fill-rule="evenodd" clip-rule="evenodd" d="M12.5 16C13.8807 16 15 14.8807 15 13.5C15 12.1193 13.8807 11 12.5 11C11.1193 11 10 12.1193 10 13.5C10 14.8807 11.1193 16 12.5 16ZM12.5 17C14.433 17 16 15.433 16 13.5C16 11.567 14.433 10 12.5 10C10.567 10 9 11.567 9 13.5C9 15.433 10.567 17 12.5 17Z" fill="currentColor"/>
            <path d="M8 11C8 11.5523 7.55228 12 7 12C6.44772 12 6 11.5523 6 11C6 10.4477 6.44772 10 7 10C7.55228 10 8 10.4477 8 11Z" fill="currentColor"/>
            <path fill-rule="evenodd" clip-rule="evenodd" d="M17 9H20V18H5V9H8V8H5H4V9V18V19H5H20H21V18V9V8H20H17V9Z" fill="currentColor"/>
            <path fill-rule="evenodd" clip-rule="evenodd" d="M8 9V6H9V9H8Z" fill="currentColor"/>
            <path fill-rule="evenodd" clip-rule="evenodd" d="M17 7H8V6H17V7Z" fill="currentColor"/>
            <path fill-rule="evenodd" clip-rule="evenodd" d="M16 9V6H17V9H16Z" fill="currentColor"/>
        </symbol>
        <symbol id='caretdown' viewBox="0 0 25 25">
            <path fill-rule="evenodd" clip-rule="evenodd" d="M10 12V13H11V14H12V15H13V14H14V13H15V12H16V11V10H15H14H13H12H11H10H9V11V12H10Z" fill="currentColor"/>
        </symbol>
        <symbol id='caretleft' viewBox="0 0 25 25">
            <path fill-rule="evenodd" clip-rule="evenodd" d="M13 10H12V11H11V12H10V13H11V14H12V15H13V16H14H15V15V14V13V12V11V10V9H14H13V10Z" fill="currentColor"/>
        </symbol>
        <symbol id='caretright' viewBox="0 0 25 25">
            <path fill-rule="evenodd" clip-rule="evenodd" d="M13 10H12V9H11H10V10V11V12V13V14V15V16H11H12V15H13V14H14V13H15V12H14V11H13V10Z" fill="currentColor"/>
        </symbol>
        <symbol id='caretup' viewBox="0 0 25 25">
            <path fill-rule="evenodd" clip-rule="evenodd" d="M12 10H13V11H14V12H15V13H16V14V15H15H14H13H12H11H10H9V14V13H10V12H11V11H12V10Z" fill="currentColor"/>
        </symbol>
        <symbol id='check' viewBox="0 0 25 25">
            <path d="M17 8V9H16V10H15V11H14V12H13V13H12V14H11V15H10V14H9V13H8V12H6V13H7V14H8V15H9V16H10V17H11V16H12V15H13V14H14V13H15V12H16V11H17V10H18V9H19V8H17Z" fill="currentColor"/>
        </symbol>
        <symbol id='clock' viewBox="0 0 25 25">
            <path fill-rule="evenodd" clip-rule="evenodd" d="M12.5 19C16.0899 19 19 16.0899 19 12.5C19 8.91015 16.0899 6 12.5 6C8.91015 6 6 8.91015 6 12.5C6 16.0899 8.91015 19 12.5 19ZM12.5 20C16.6421 20 20 16.6421 20 12.5C20 8.35786 16.6421 5 12.5 5C8.35786 5 5 8.35786 5 12.5C5 16.6421 8.35786 20 12.5 20Z" fill="currentColor"/>
            <path fill-rule="evenodd" clip-rule="evenodd" d="M13 13H8V12H13V13Z" fill="currentColor"/>
            <path fill-rule="evenodd" clip-rule="evenodd" d="M12 13L12 7L13 7L13 13L12 13Z" fill="currentColor"/>
        </symbol>
        <symbol id='close' viewBox="0 0 25 25">
            <path d="M7 8H9V9H10V10H11V11H12V12H13V11H14V10H15V9H16V8H18V9H17V10H16V11H15V12H14V14H15V15H16V16H17V17H18V18H16V17H15V16H14V15H13V14H12V15H11V16H10V17H9V18H7V17H8V16H9V15H10V14H11V12H10V11H9V10H8V9H7V8Z" fill="currentColor"/>
        </symbol>
        <symbol id='copy' viewBox="0 0 25 25" >
            <path fill-rule="evenodd" clip-rule="evenodd" d="M11 8H17V14H15H14H11V11V10V8ZM14 15H11H10V14V11H8V17H14V15ZM14 18H8H7V17V11V10H8H10V8V7H11H17H18V8V14V15H17H15V17V18H14Z" fill="currentColor"/>
        </symbol>
        <symbol id='decreaseprecision'>
            <path d="M8.5332 11.6572C8.36719 11.7809 8.28418 11.9958 8.28418 12.3018C8.28418 12.5947 8.36719 12.8063 8.5332 12.9365C8.70247 13.0667 8.90592 13.1318 9.14355 13.1318C9.37467 13.1318 9.57324 13.0667 9.73926 12.9365C9.90853 12.8063 9.99316 12.5947 9.99316 12.3018C9.99316 11.9958 9.90853 11.7809 9.73926 11.6572C9.57324 11.5335 9.37467 11.4717 9.14355 11.4717C8.90592 11.4717 8.70247 11.5335 8.5332 11.6572Z" fill="currentColor"/>
            <path fill-rule="evenodd" clip-rule="evenodd" d="M15.7793 10.9736C15.8704 10.5212 15.916 10.0068 15.916 9.43066C15.916 8.65592 15.8265 7.99512 15.6475 7.44824C15.4684 6.89811 15.1934 6.47819 14.8223 6.18848C14.4544 5.89551 13.9857 5.74902 13.416 5.74902C12.8073 5.74902 12.3206 5.89551 11.9561 6.18848C11.5915 6.48145 11.3278 6.90299 11.165 7.45312C11.0055 8 10.9258 8.65918 10.9258 9.43066C10.9258 10.1956 11.0137 10.8532 11.1895 11.4033C11.3652 11.9502 11.637 12.3701 12.0049 12.6631C12.3727 12.9528 12.8431 13.0977 13.416 13.0977C13.8717 13.0977 14.2591 13.0146 14.5781 12.8486C14.8971 12.6826 15.1543 12.4417 15.3496 12.126C15.5482 11.8102 15.6914 11.4261 15.7793 10.9736ZM12.5127 10.793C12.4541 10.4284 12.4248 9.97428 12.4248 9.43066C12.4248 8.88704 12.4541 8.43294 12.5127 8.06836C12.5745 7.70378 12.6771 7.43034 12.8203 7.24805C12.9635 7.0625 13.1621 6.96973 13.416 6.96973C13.6667 6.96973 13.8636 7.0625 14.0068 7.24805C14.1533 7.43034 14.2575 7.70378 14.3193 8.06836C14.3812 8.43294 14.4121 8.88704 14.4121 9.43066C14.4121 9.97754 14.3812 10.4333 14.3193 10.7979C14.2575 11.1592 14.1533 11.431 14.0068 11.6133C13.8636 11.7923 13.6667 11.8818 13.416 11.8818C13.1621 11.8818 12.9635 11.7907 12.8203 11.6084C12.6771 11.4261 12.5745 11.1543 12.5127 10.793Z" fill="currentColor"/>
            <path d="M12 16V14H11V15H10V16H9V17H10V18H11V19H12V17H16V16H12Z" fill="currentColor"/>
        </symbol>
        <symbol id='doubletick' viewBox="0 0 25 25" >
            <path d="M15 11H10V15H9V11H6V9H19V11H16V15H15V11Z" fill="currentColor"/>
        </symbol>
        <symbol id='download' viewBox="0 0 25 25">
            <path d="M12 16H13V15H14V14H15V13H16V12H17V11H15V12H14V13H13V6H12V13H11V12H10V11H8V12H9V13H10V14H11V15H12V16Z" fill="currentColor"/>
            <path d="M8 18V16H7V19H18V16H17V18H8Z" fill="currentColor"/>
        </symbol>
         <symbol id='failed' viewBox="0 0 25 25">
            <path d="M9 9H11V10H12V11H13V10H14V9H16V10H15V11H14V12H13V13H14V14H15V15H16V16H14V15H13V14H12V15H11V16H9V15H10V14H11V13H12V12H11V11H10V10H9V9Z" fill="currentColor"/>
            <path fill-rule="evenodd" clip-rule="evenodd" d="M12.5 20C16.6421 20 20 16.6421 20 12.5C20 8.35786 16.6421 5 12.5 5C8.35786 5 5 8.35786 5 12.5C5 16.6421 8.35786 20 12.5 20ZM12.5 19C16.0899 19 19 16.0899 19 12.5C19 8.91015 16.0899 6 12.5 6C8.91015 6 6 8.91015 6 12.5C6 16.0899 8.91015 19 12.5 19Z" fill="currentColor"/>
        </symbol>
        <symbol id='fullscreen' viewBox="0 0 25 25">
            <path d="M7 7H10V6H6V10H7L7 7Z" fill="currentColor"/>
            <path d="M18 18H15V19H19L19 15H18L18 18Z" fill="currentColor"/>
            <path d="M18 7L15 7V6H19V10H18V7Z" fill="currentColor"/>
            <path d="M10 18H7L7 15H6V19H10V18Z" fill="currentColor"/>
        </symbol>
        <symbol id='increaseprecision' viewBox="0 0 25 25">
            <path d="M6.17188 11.6572C6.00586 11.7809 5.92285 11.9958 5.92285 12.3018C5.92285 12.5947 6.00586 12.8063 6.17188 12.9365C6.34115 13.0667 6.5446 13.1318 6.78223 13.1318C7.01335 13.1318 7.21191 13.0667 7.37793 12.9365C7.5472 12.8063 7.63184 12.5947 7.63184 12.3018C7.63184 11.9958 7.5472 11.7809 7.37793 11.6572C7.21191 11.5335 7.01335 11.4717 6.78223 11.4717C6.5446 11.4717 6.34115 11.5335 6.17188 11.6572Z" fill="currentColor"/>
            <path fill-rule="evenodd" clip-rule="evenodd" d="M13.418 10.9736C13.5091 10.5212 13.5547 10.0068 13.5547 9.43066C13.5547 8.65592 13.4652 7.99512 13.2861 7.44824C13.1071 6.89811 12.832 6.47819 12.4609 6.18848C12.0931 5.89551 11.6243 5.74902 11.0547 5.74902C10.446 5.74902 9.95931 5.89551 9.59473 6.18848C9.23014 6.48145 8.96647 6.90299 8.80371 7.45312C8.64421 8 8.56445 8.65918 8.56445 9.43066C8.56445 10.1956 8.65234 10.8532 8.82812 11.4033C9.00391 11.9502 9.27572 12.3701 9.64355 12.6631C10.0114 12.9528 10.4818 13.0977 11.0547 13.0977C11.5104 13.0977 11.8978 13.0146 12.2168 12.8486C12.5358 12.6826 12.793 12.4417 12.9883 12.126C13.1868 11.8102 13.3301 11.4261 13.418 10.9736ZM10.1514 10.793C10.0928 10.4284 10.0635 9.97428 10.0635 9.43066C10.0635 8.88704 10.0928 8.43294 10.1514 8.06836C10.2132 7.70378 10.3158 7.43034 10.459 7.24805C10.6022 7.0625 10.8008 6.96973 11.0547 6.96973C11.3053 6.96973 11.5023 7.0625 11.6455 7.24805C11.792 7.43034 11.8962 7.70378 11.958 8.06836C12.0199 8.43294 12.0508 8.88704 12.0508 9.43066C12.0508 9.97754 12.0199 10.4333 11.958 10.7979C11.8962 11.1592 11.792 11.431 11.6455 11.6133C11.5023 11.7923 11.3053 11.8818 11.0547 11.8818C10.8008 11.8818 10.6022 11.7907 10.459 11.6084C10.3158 11.4261 10.2132 11.1543 10.1514 10.793Z" fill="currentColor"/>
            <path fill-rule="evenodd" clip-rule="evenodd" d="M19.1406 10.9736C19.2318 10.5212 19.2773 10.0068 19.2773 9.43066C19.2773 8.65592 19.1878 7.99512 19.0088 7.44824C18.8298 6.89811 18.5547 6.47819 18.1836 6.18848C17.8158 5.89551 17.347 5.74902 16.7773 5.74902C16.1686 5.74902 15.682 5.89551 15.3174 6.18848C14.9528 6.48145 14.6891 6.90299 14.5264 7.45312C14.3669 8 14.2871 8.65918 14.2871 9.43066C14.2871 10.1956 14.375 10.8532 14.5508 11.4033C14.7266 11.9502 14.9984 12.3701 15.3662 12.6631C15.734 12.9528 16.2044 13.0977 16.7773 13.0977C17.2331 13.0977 17.6204 13.0146 17.9395 12.8486C18.2585 12.6826 18.5156 12.4417 18.7109 12.126C18.9095 11.8102 19.0527 11.4261 19.1406 10.9736ZM15.874 10.793C15.8154 10.4284 15.7861 9.97428 15.7861 9.43066C15.7861 8.88704 15.8154 8.43294 15.874 8.06836C15.9359 7.70378 16.0384 7.43034 16.1816 7.24805C16.3249 7.0625 16.5234 6.96973 16.7773 6.96973C17.028 6.96973 17.2249 7.0625 17.3682 7.24805C17.5146 7.43034 17.6188 7.70378 17.6807 8.06836C17.7425 8.43294 17.7734 8.88704 17.7734 9.43066C17.7734 9.97754 17.7425 10.4333 17.6807 10.7979C17.6188 11.1592 17.5146 11.431 17.3682 11.6133C17.2249 11.7923 17.028 11.8818 16.7773 11.8818C16.5234 11.8818 16.3249 11.7907 16.1816 11.6084C16.0384 11.4261 15.9359 11.1543 15.874 10.793Z" fill="currentColor"/>
            <path d="M13 17V19H14V18H15V17H16V16H15V15H14V14H13V16H9V17H13Z" fill="currentColor"/>
        </symbol>
        <symbol id='info' viewBox="0 0 25 25">
            <path d="M15 16V15H13V10H15V9H10V10H12V15H10V16H15Z" fill="currentColor"/>
            <path fill-rule="evenodd" clip-rule="evenodd" d="M20 12.5C20 16.6421 16.6421 20 12.5 20C8.35786 20 5 16.6421 5 12.5C5 8.35786 8.35786 5 12.5 5C16.6421 5 20 8.35786 20 12.5ZM19 12.5C19 16.0899 16.0899 19 12.5 19C8.91015 19 6 16.0899 6 12.5C6 8.91015 8.91015 6 12.5 6C16.0899 6 19 8.91015 19 12.5Z" fill="currentColor"/>
        </symbol>
        <symbol id='link' viewBox="0 0 25 25">
            <path d="M14 6H15V7H16V8H17V9H18V10H19V11H18V12H17V13H15V12H16V11H17V10H16V9H15V8H14V9H13V10H12V8H13V7H14V6Z" fill="currentColor"/>
            <path d="M10 18H9V17H8V16H7V15H6V14H7V13H8V12H10V13H9V14H8V15H9V16H10V17H11V16H12V15H13V17H12V18H11V19H10V18Z" fill="currentColor"/>
            <path d="M13 12H12V13H11V14H10V15H11V14H12V13H13V12Z" fill="currentColor"/>
            <path d="M14 11V12H13V11H14Z" fill="currentColor"/>
            <path d="M14 11V10H15V11H14Z" fill="currentColor"/>
        </symbol>
        <symbol id='menu' viewBox="0 0 25 25">
            <path d="M10 4H15V9H10V4Z" fill="currentColor"/>
            <path d="M10 16H15V21H10V16Z" fill="currentColor"/>
            <path d="M10 10H15V15H10V10Z" fill="currentColor"/>
        </symbol>
        <symbol id='minus' viewBox="0 0 25 25">
            <path d="M7 12.5H18" stroke="currentColor"/>
        </symbol>
         <symbol id='network' viewBox="0 0 25 25">
            <path d="M17 11H16V12H15V13H14V11L9 11V10L14 10V8H15V9H16V10H17V11Z" fill="currentColor"/>
            <path d="M9 14H8L8 15H9V16H10V17H11V15H16V14H11V12H10V13H9V14Z" fill="currentColor"/>
            <path fill-rule="evenodd" clip-rule="evenodd" d="M12.5 20C16.6421 20 20 16.6421 20 12.5C20 8.35786 16.6421 5 12.5 5C8.35786 5 5 8.35786 5 12.5C5 16.6421 8.35786 20 12.5 20ZM12.5 19C16.0899 19 19 16.0899 19 12.5C19 8.91015 16.0899 6 12.5 6C8.91015 6 6 8.91015 6 12.5C6 16.0899 8.91015 19 12.5 19Z" fill="currentColor"/>
        </symbol>
        <symbol id='newtab' width="25" height="25" viewBox="0 0 25 25" fill="none" xmlns="http://www.w3.org/2000/svg">
            <path d="M7 18H18V14H17V17H8V8H11V7H7L7 18Z" fill="currentColor"/>
            <path d="M16 8V9H15V10H14V11H13V12H12V13H13V12H14V11H15V10H16V9H17V12H18V7H13V8H16Z" fill="currentColor"/>
        </symbol>
        <symbol id='pencil' viewBox="0 0 25 25">
            <path d="M15 6H16V7H15V6Z" fill="currentColor"/>
            <path d="M14 8V7H15V8H14Z" fill="currentColor"/>
            <path d="M13 9V8H14V9H13Z" fill="currentColor"/>
            <path d="M12 10V9H13V10H12Z" fill="currentColor"/>
            <path d="M11 11V10H12V11H11Z" fill="currentColor"/>
            <path d="M10 12V11H11V12H10Z" fill="currentColor"/>
            <path d="M9 13V12H10V13H9Z" fill="currentColor"/>
            <path d="M8 14V13H9V14H8Z" fill="currentColor"/>
            <path d="M7 15V14H8V15H7Z" fill="currentColor"/>
            <path fill-rule="evenodd" clip-rule="evenodd" d="M8 17H7V15H6V19H10V18H11V17H12V16H13V15H14V14H15V13H16V12H17V11H18V10H19V9H18V8H17V7H16V9H15V10H14V11H13V12H12V13H11V14H10V15H9V16H8V17ZM8 17H9V16H10V15H11V14H12V13H13V12H14V11H15V10H16V9H18V10H17V11H16V12H15V13H14V14H13V15H12V16H11V17H10V18H8V17Z" fill="currentColor"/>
        </symbol>
        <symbol id='plus' viewBox="0 0 25 25">
          <path d="M12 13V18H13V13H18V12H13V7H12V12H7V13H12Z" fill="currentColor"/>
        </symbol>
        <symbol id='randomtick' viewBox="0 0 25 25">
            <path d="M19 12H17V13H16V12H15V13H14V12H13V13H12V12H11V13H10V12H9V13H8V12H6V10H19V12Z" fill="currentColor"/>
            <path d="M9 14V13H10V14H9Z" fill="currentColor"/>
            <path d="M9 15V14H8V15H9Z" fill="currentColor"/>
            <path d="M10 15V14H11V15H10Z" fill="currentColor"/>
            <path d="M12 15V16H11V15H12Z" fill="currentColor"/>
            <path d="M12 14H11V13H12V14Z" fill="currentColor"/>
            <path fill-rule="evenodd" clip-rule="evenodd" d="M13 14H12V15H13V16H14V15H15V16H16V15H17V14H16V13H15V14H14V13H13V14ZM13 14H14V15H13V14ZM15 14H16V15H15V14Z" fill="currentColor"/>
            <path d="M10 15H9V16H10V15Z" fill="currentColor"/>
        </symbol>
        <symbol id='refresh' viewBox="0 0 25 25">
            <path d="M17.4003 15C16.4899 16.7808 14.6373 18 12.5 18C9.63098 18 7.27503 15.8033 7.02242 13H6.01894C6.27426 16.3562 9.07838 19 12.5 19C14.8158 19 16.8487 17.789 18 15.9657V18H19V14H15V15H17.4003Z" fill="currentColor"/>
            <path d="M18.9811 12C18.7257 8.64378 15.9216 6 12.5 6C10.1842 6 8.15132 7.21102 7 9.03431L7 7H6V11H10V10H7.59971C8.51006 8.21916 10.3627 7 12.5 7C15.369 7 17.725 9.19675 17.9776 12H18.9811Z" fill="currentColor"/>
        </symbol>
        <symbol id='reset' viewBox="0 0 24 24">
            <path d="M12.5 18C15.5376 18 18 15.5376 18 12.5C18 9.46243 15.5376 7 12.5 7C10.3627 7 8.51007 8.21916 7.59971 10H10V11H6V7H7V9.03432C8.15132 7.21102 10.1842 6 12.5 6C16.0899 6 19 8.91015 19 12.5C19 16.0899 16.0899 19 12.5 19C9.42642 19 6.8511 16.8667 6.17393 14H7.20704C7.85996 16.3085 9.98245 18 12.5 18Z" fill="currentColor"/>
        </symbol>
        <symbol id='scale' viewBox="0 0 25 25" fill="none">
            <path fill-rule="evenodd" clip-rule="evenodd" d="M9 8V14.05C9.97956 14.2488 10.7512 15.0204 10.95 16H17V15H16V13H17V14H18V15H19V16H20V17H19V18H18V19H17V20H16V18H17V17H10.95C10.7184 18.1411 9.70948 19 8.5 19C7.11929 19 6 17.8807 6 16.5C6 15.2905 6.85888 14.2816 8 14.05V8H7V9H5V8H6V7H7V6H8L8 5H9V6H10V7H11V8H12V9H10V8H9ZM10 16.5C10 15.6716 9.32843 15 8.5 15C7.67157 15 7 15.6716 7 16.5C7 17.3284 7.67157 18 8.5 18C9.32843 18 10 17.3284 10 16.5Z" fill="currentColor"/>
        </symbol>
        <symbol id='scrolldown' viewBox="0 0 25 25" fill="none">
            <path d="M9 8V9H10V10H11V11H12V12H13V11H14V10H15V9H16V8H17V7H15V8H14V9H13V10H12V9H11V8H10V7H8V8H9Z" fill="currentColor"/>
            <path d="M12 17V18H13V17H14V16H15V15H16V14H17V13H18V12H19V11H20V10H18V11H17V12H16V13H15V14H14V15H13V16H12V15H11V14H10V13H9V12H8V11H7V10H5V11H6V12H7V13H8V14H9V15H10V16H11V17H12Z" fill="currentColor"/>
        </symbol>
        <symbol id='scrollleft' viewBox="0 0 25 25" fill="none">
           <path d="M15 5H14V6H13V7H12V8H11V9H10V10H9V11H8V12H7V13H8V14H9V15H10V16H11V17H12V18H13V19H14V20H15V18H14V17H13V16H12V15H11V14H10V13H9V12H10V11H11V10H12V9H13V8H14V7H15V5Z" fill="currentColor"/>
            <path d="M14 12H13V13H14V14H15V15H16V16H17V17H18V15H17V14H16V13H15V12H16V11H17V10H18V8H17V9H16V10H15V11H14V12Z" fill="currentColor"/>
        </symbol>
        <symbol  id='scrollright' viewBox="0 0 25 25" fill="none">
            <path d="M11 8V7H10V5H11V6H12V7H13V8H14V9H15V10H16V11H17V12H18V13H17V14H16V15H15V16H14V17H13V18H12V19H11V20H10V18H11V17H12V16H13V15H14V14H15V13H16V12H15V11H14V10H13V9H12V8H11Z" fill="currentColor"/>
            <path d="M10 12V13H9V14H8V15H7V17H8V16H9V15H10V14H11V13H12V12H11V11H10V10H9V9H8V8H7V10H8V11H9V12H10Z" fill="currentColor"/>
        </symbol>
        <symbol id='scrollup' viewBox="0 0 25 25" fill="none">
            <path d="M13 8V7H12V8H11V9H10V10H9V11H8V12H7V13H6V14H5V15H7V14H8V13H9V12H10V11H11V10H12V9H13V10H14V11H15V12H16V13H17V14H18V15H20V14H19V13H18V12H17V11H16V10H15V9H14V8H13Z" fill="currentColor"/>
            <path d="M13 14V13H12V14H11V15H10V16H9V17H8V18H10V17H11V16H12V15H13V16H14V17H15V18H17V17H16V16H15V15H14V14H13Z" fill="currentColor"/>
        </symbol>
        <symbol id='search' viewBox="0 0 25 25">
            <path fill-rule="evenodd" clip-rule="evenodd" d="M10.5 15C12.9853 15 15 12.9853 15 10.5C15 8.01472 12.9853 6 10.5 6C8.01472 6 6 8.01472 6 10.5C6 12.9853 8.01472 15 10.5 15ZM10.5 16C13.5376 16 16 13.5376 16 10.5C16 7.46243 13.5376 5 10.5 5C7.46243 5 5 7.46243 5 10.5C5 13.5376 7.46243 16 10.5 16Z" fill="currentColor"/>
            <path fill-rule="evenodd" clip-rule="evenodd" d="M17.6464 18.3536L13.6464 14.3536L14.3535 13.6465L18.3535 17.6465L17.6464 18.3536Z" fill="currentColor"/>
        </symbol>
         <symbol id='setting' viewBox="0 0 25 25">
            <path d="M12 9V7H13V9H12Z" fill="currentColor"/>
            <path d="M15 11H13V18H12V11H10V10H15V11Z" fill="currentColor"/>
            <path d="M7 15H5V14H10V15H8L8 18H7L7 15Z" fill="currentColor"/>
            <path d="M18 13H20V12H15V13H17V18H18V13Z" fill="currentColor"/>
            <path d="M18 7H17V11H18V7Z" fill="currentColor"/>
            <path d="M7 13L7 7H8L8 13H7Z" fill="currentColor"/>
        </symbol>
        <symbol id='singletick' viewBox="0 0 25 25">
            <path d="M13 11H19V9H6V11H12V15H13V11Z" fill="currentColor"/>  
        </symbol>
        <symbol id='sort' viewBox="0 0 25 25">
            <path fill-rule="evenodd" clip-rule="evenodd" d="M12 7H13V8H14V9H15V10H16V11V12H15H14H13H12H11H10H9V11V10H10V9H11V8H12V7ZM11 17H12V18H13V17H14V16H15V15H16V14V13H15H14H13H12H11H10H9V14V15H10V16H11V17Z" fill="currentColor"/>
        </symbol>
        <symbol id='sortasc' viewBox="0 0 25 25">
            <path fill-rule="evenodd" clip-rule="evenodd" d="M12 7H13V8H14V9H15V10H16V11V12H15H14H13H12H11H10H9V11V10H10V9H11V8H12V7Z" fill="currentColor"/>
            <path fill-rule="evenodd" clip-rule="evenodd" d="M9 13V14V15H10V16H11V17H12V18H13V17H14V16H15V15H16V14V13H15H14H13H12H11H10H9Z" fill="currentColor" fill-opacity="0.5"/>
        </symbol>
        <symbol id='sortdsc' viewBox="0 0 25 25">
            <path fill-rule="evenodd" clip-rule="evenodd" d="M12 7H13V8H14V9H15V10H16V11V12H15H14H13H12H11H10H9V11V10H10V9H11V8H12V7Z" fill="currentColor" fill-opacity="0.5"/>
            <path fill-rule="evenodd" clip-rule="evenodd" d="M10 15V16H11V17H12V18H13V17H14V16H15V15H16V14V13H15H14H13H12H11H10H9V14V15H10Z" fill="currentColor"/>
        </symbol>
        <symbol id='status' viewBox="0 0 25 25" fill="none">
            <path fill-rule="evenodd" clip-rule="evenodd" d="M7 7V10H18V7H7ZM17 8H8V9H17V8Z" fill="currentColor"/>
            <path d="M16 12H7V11H16V12Z" fill="currentColor"/>
            <path d="M7 14H16V13H7V14Z" fill="currentColor"/>
            <path d="M16 18H7V17H16V18Z" fill="currentColor"/>
            <path d="M7 16H16V15H7V16Z" fill="currentColor"/>
        </symbol>
        <symbol id='success' viewBox="0 0 25 25" fill="none">
            <path d="M8 12H10V13H11V14H12V13H13V12H14V11H15V10H17V11H16V12H15V13H14V14H13V15H12V16H11V15H10V14H9V13H8V12Z" fill="currentColor"/>
<path fill-rule="evenodd" clip-rule="evenodd" d="M12.5 20C16.6421 20 20 16.6421 20 12.5C20 8.35786 16.6421 5 12.5 5C8.35786 5 5 8.35786 5 12.5C5 16.6421 8.35786 20 12.5 20ZM12.5 19C16.0899 19 19 16.0899 19 12.5C19 8.91015 16.0899 6 12.5 6C8.91015 6 6 8.91015 6 12.5C6 16.0899 8.91015 19 12.5 19Z" fill="currentColor"/>
        </symbol>
        <symbol id='sunray' viewBox="0 0 25 25">
            <path fill-rule="evenodd" clip-rule="evenodd" d="M12.0759 17.9839L12.5 18.0162L12.9241 17.9839C14.1239 17.8927 15.2157 17.4167 16.0781 16.6771L16.4006 16.4006L16.6771 16.0781C17.4167 15.2157 17.8927 14.1239 17.9839 12.9241L18.0162 12.5L17.9839 12.0759C17.8927 10.8761 17.4167 9.78427 16.6771 8.92186L16.4006 8.59941L16.0781 8.32289C15.2157 7.58333 14.1239 7.10733 12.9241 7.01606L12.5 6.9838L12.0759 7.01606C10.8761 7.10733 9.78427 7.58333 8.92186 8.32289L8.59941 8.59941L8.32289 8.92186C7.58333 9.78427 7.10733 10.8761 7.01606 12.0759L6.9838 12.5L7.01606 12.9241C7.10733 14.1239 7.58333 15.2157 8.32289 16.0781L8.59941 16.4006L8.92186 16.6771C9.78427 17.4167 10.8761 17.8927 12.0759 17.9839ZM8.27089 17.4362L6.35355 19.3536L5.64645 18.6464L7.56379 16.7291C6.6905 15.7108 6.12689 14.4191 6.01894 13H4V12H6.01894C6.12689 10.5809 6.6905 9.28924 7.56379 8.27089L5.64645 6.35355L6.35355 5.64645L8.27089 7.56379C9.28924 6.6905 10.5809 6.12689 12 6.01894V4H13V6.01894C14.4191 6.12689 15.7108 6.6905 16.7291 7.56379L18.6464 5.64645L19.3536 6.35355L17.4362 8.27089C18.3095 9.28924 18.8731 10.5809 18.9811 12H21V13H18.9811C18.8731 14.4191 18.3095 15.7108 17.4362 16.7291L19.3536 18.6464L18.6464 19.3536L16.7291 17.4362C15.7108 18.3095 14.4191 18.8731 13 18.9811V21H12V18.9811C10.5809 18.8731 9.28924 18.3095 8.27089 17.4362Z" fill="currentColor"/>
        </symbol>
        <symbol id='twitter' viewBox="-10 -10 45 45">
            <path d="M24 4.557c-.883.392-1.832.656-2.828.775 1.017-.609 1.798-1.574 2.165-2.724-.951.564-2.005.974-3.127 1.195-.897-.957-2.178-1.555-3.594-1.555-3.179 0-5.515 2.966-4.797 6.045-4.091-.205-7.719-2.165-10.148-5.144-1.29 2.213-.669 5.108 1.523 6.574-.806-.026-1.566-.247-2.229-.616-.054 2.281 1.581 4.415 3.949 4.89-.693.188-1.452.232-2.224.084.626 1.956 2.444 3.379 4.6 3.419-2.07 1.623-4.678 2.348-7.29 2.04 2.179 1.397 4.768 2.212 7.548 2.212 9.142 0 14.307-7.721 13.995-14.646.962-.695 1.797-1.562 2.457-2.549z" fill="currentColor"/>
        </symbol>
        <symbol id='volumetick' viewBox="-10 -10 45 45">
            <path d="M11 22H20V20H13L13 3H11L11 22Z" fill="currentColor"/>
            <path d="M10 8H5V7H10V8Z" fill="currentColor"/>
            <path d="M5 15H10V14H5V15Z" fill="currentColor"/>
        </symbol>
        <symbol id='whitegear' viewBox="0 0 25 25">
            <path fill-rule="evenodd" clip-rule="evenodd" d="M14 7.20703V5H11V7.20703C10.584 7.3247 10.188 7.49011 9.81828 7.69695L8.25737 6.13604L6.13605 8.25736L7.69696 9.81827C7.49011 10.1879 7.32471 10.584 7.20703 11H5V14H7.20703C7.32471 14.416 7.49011 14.8121 7.69696 15.1817L6.13604 16.7426L8.25736 18.864L9.81828 17.303C10.188 17.5099 10.584 17.6753 11 17.793V20H14V17.793C14.416 17.6753 14.8121 17.5099 15.1817 17.303L16.7426 18.864L18.864 16.7426L17.303 15.1817C17.5099 14.812 17.6753 14.416 17.793 14H20V11H17.793C17.6753 10.584 17.5099 10.188 17.303 9.81828L18.864 8.25736L16.7426 6.13604L15.1817 7.69696C14.8121 7.49011 14.416 7.32471 14 7.20703ZM16.7426 7.55025L15.3538 8.93912L14.6934 8.56964C14.3911 8.40048 14.0676 8.26537 13.7278 8.16928L13 7.96342V6H12V7.96342L11.2722 8.16928C10.9324 8.26537 10.6089 8.40048 10.3066 8.56963L9.64623 8.93912L8.25737 7.55026L7.55026 8.25736L8.93912 9.64622L8.56964 10.3066C8.40048 10.6089 8.26537 10.9324 8.16928 11.2722L7.96342 12H6V13H7.96342L8.16928 13.7278C8.26537 14.0676 8.40048 14.3911 8.56964 14.6934L8.93912 15.3538L7.55026 16.7426L8.25736 17.4497L9.64623 16.0609L10.3066 16.4304C10.6089 16.5995 10.9324 16.7346 11.2722 16.8307L12 17.0366V19H13V17.0366L13.7278 16.8307C14.0676 16.7346 14.3911 16.5995 14.6934 16.4304L15.3538 16.0609L16.7426 17.4498L17.4498 16.7426L16.0609 15.3538L16.4304 14.6934C16.5995 14.3911 16.7346 14.0676 16.8307 13.7278L17.0366 13H19V12H17.0366L16.8307 11.2722C16.7346 10.9324 16.5995 10.6089 16.4304 10.3066L16.0609 9.64623L17.4498 8.25736L16.7426 7.55025ZM15 12.5C15 13.8807 13.8807 15 12.5 15C11.1193 15 10 13.8807 10 12.5C10 11.1193 11.1193 10 12.5 10C13.8807 10 15 11.1193 15 12.5ZM14 12.5C14 13.3284 13.3284 14 12.5 14C11.6716 14 11 13.3284 11 12.5C11 11.6716 11.6716 11 12.5 11C13.3284 11 14 11.6716 14 12.5Z" fill="currentColor"/>
        </symbol>
        <symbol id='whitestar' viewBox="0 0 25 25">
            <path fill-rule="evenodd" clip-rule="evenodd" d="M14.7042 9.46619L12.5 5L10.2958 9.46619L5.36707 10.1824L8.93353 13.6588L8.0916 18.5676L12.5 16.25L16.9084 18.5676L16.0665 13.6588L19.6329 10.1824L14.7042 9.46619ZM17.484 10.8806L14.0401 10.3802L12.5 7.25955L10.9599 10.3802L7.51603 10.8806L10.008 13.3097L9.41973 16.7396L12.5 15.1202L15.5802 16.7396L14.992 13.3097L17.484 10.8806Z" fill="currentColor"/>
        </symbol>
      <symbol id='chart0' viewBox="0 0 25 25">
            <path d="M21 7H20V8H19V9H18V10H17V11H16V12H15V13H14V12H13V11H12V10H11V9H10V8H9V9H8V10H7V11H6V12H5V13H4V15H5V14H6V13H7V12H8V11H9V10H10V11H11V12H12V13H13V14H14V15H15V14H16V13H17V12H18V11H19V10H20V9H21V7Z" fill="currentColor"/>
            <path d="M5 16H6V17H5V16Z" fill="currentColor"/>
            <path d="M5 18V17H4V18H5Z" fill="currentColor"/>
            <path d="M6 18V17H7V18H6Z" fill="currentColor"/>
            <path d="M8 18V19H7V18H8Z" fill="currentColor"/>
            <path d="M8 17H7V16H8V17Z" fill="currentColor"/>
            <path d="M11 16H12V17H11V16Z" fill="currentColor"/>
            <path fill-rule="evenodd" clip-rule="evenodd" d="M9 17H8V18H9V19H10V18H11V19H12V18H13V19H14V18H15V19H16V18H17V19H18V18H19V19H20V18H21V17H20V16H21V15H20V14H21V13H20V12H21V11H20V12H19V13H18V14H17V15H16V16H15V17H14V16H13V15H12V14H11V13H10V12H9V13H8V14H7V15H6V16H7V15H8V16H9V17ZM10 17V18H9V17H10ZM10 16H9V15H10V16ZM11 16H10V17H11V18H12V17H13V18H14V17H13V16H12V15H11V14H10V13H9V14H8V15H9V14H10V15H11V16ZM16 17V16H17V17H16ZM18 17V18H17V17H18ZM18 16H17V15H18V16ZM19 16H18V17H19V18H20V17H19V16ZM19 15H18V14H19V15ZM19 15H20V16H19V15ZM16 17V18H15V17H16ZM19 14V13H20V14H19Z" fill="currentColor"/>
            <path d="M6 18H5V19H6V18Z" fill="currentColor"/>
        </symbol>
        <symbol id='chart1' viewBox="0 0 25 25">
            <path fill-rule="evenodd" clip-rule="evenodd" d="M8 14V9H9V11H12V12H9V14V22H8V20H5V19H8V14Z" fill="currentColor"/>
            <path fill-rule="evenodd" clip-rule="evenodd" d="M16 11V6H13V5H16V3H17V11V15H20V16H17V18H16V11Z" fill="currentColor"/>
        </symbol>
        <symbol id='chart2' viewBox="0 0 25 25">
            <path d="M20 7V9H19V11H20V10H21V8H22V7H20Z" fill="currentColor"/>
            <path d="M5 16V18H3V17H4V15H5V14H6V16H5Z" fill="currentColor"/>
            <path d="M7 10H8V8H9V7H10V8H11V10H12V11H10V9H9V11H7V10Z" fill="currentColor"/>
            <path d="M17 15H18V14H16V16H15V14H13V15H14V17H15V18H16V17H17V15Z" fill="currentColor"/>
            <path d="M5 12H6V13H5V12Z" fill="currentColor"/>
            <path d="M4 12H3V13H4V12Z" fill="currentColor"/>
            <path d="M7 12H8V13H7V12Z" fill="currentColor"/>
            <path d="M10 12H9V13H10V12Z" fill="currentColor"/>
            <path d="M11 12H12V13H11V12Z" fill="currentColor"/>
            <path d="M14 12H13V13H14V12Z" fill="currentColor"/>
            <path d="M15 12H16V13H15V12Z" fill="currentColor"/>
            <path d="M18 12H17V13H18V12Z" fill="currentColor"/>
            <path d="M19 12H20V13H19V12Z" fill="currentColor"/>
            <path d="M22 12H21V13H22V12Z" fill="currentColor"/>
        </symbol>
        <symbol id='chart3' viewBox="0 0 25 25">
            <path fill-rule="evenodd" clip-rule="evenodd" d="M17 6V8.5V9H15H14V10V15V16H15H17V19H18V16H20H21V15V10V9H20H18V8.5V6H17ZM20 10H15V15H20V10Z" fill="currentColor"/>
            <path fill-rule="evenodd" clip-rule="evenodd" d="M7 4.5V3H8V4.5V6H10H11V7V18V19H10H8V22H7V19H5H4V18V7V6H5H7V4.5ZM5 7H10V18H5V7Z" fill="currentColor"/>
        </symbol>
        <symbol id='chart4' viewBox="0 0 25 25">
            <path fill-rule="evenodd" clip-rule="evenodd" d="M14 6H11V18H14V6ZM11 5H10V6V18V19H11H14H15V18V6V5H14H11ZM8 10H5V18H8V10ZM5 9H4V10V18V19H5H8H9V18V10V9H8H5ZM17 13H20V18H17V13ZM16 12H17H20H21V13V18V19H20H17H16V18V13V12Z" fill="currentColor"/>
        </symbol>
        <symbol id='chart5' viewBox="0 0 25 25">
            <path fill-rule="evenodd" clip-rule="evenodd" d="M17 3V5.5V6H15H14V7V12V13H15H20H21V12V7V6H20H18V5.5V3H17ZM15 7H20V12H15V7Z" fill="currentColor"/>
            <path fill-rule="evenodd" clip-rule="evenodd" d="M7 6V8.5V9H5H4V10V21V22H5H10H11V21V10V9H10H8V8.5V6H7ZM5 10H10V21H5V10Z" fill="currentColor"/>
        </symbol>
        <symbol id='chart6' viewBox="0 0 25 25">
            <path fill-rule="evenodd" clip-rule="evenodd" d="M14 9V16H21V9H14ZM20 10H15V15H20V10Z" fill="currentColor"/>
            <path fill-rule="evenodd" clip-rule="evenodd" d="M4 6V19H11V6H4ZM10 7H5V18H10V7Z" fill="currentColor"/>
        </symbol>
        <symbol id='chart7' viewBox="0 0 25 25">
            <path fill-rule="evenodd" clip-rule="evenodd" d="M10 4H9V5H8V6H7V7H6V8H5V9H6V10H5V11H6V10H7V9H8V8H9V7H10V8H11V9H12V10H13V11H14V12H15V11H16V10H17V9H18V8H19V7H20V6H19V5H20V4H19V5H18V6H17V7H16V8H15V9H14V8H13V7H12V6H11V5H10V4ZM10 6V5H9V6H8V7H7V8H6V9H7V8H8V7H9V6H10ZM10 6V7H11V8H12V9H13V10H14V11H15V10H16V9H17V8H18V7H19V6H18V7H17V8H16V9H15V10H14V9H13V8H12V7H11V6H10Z" fill="currentColor"/>
            <path fill-rule="evenodd" clip-rule="evenodd" d="M10 13H9V14H8V15H7V16H6V17H5V18H6V19H5V20H6V19H7V18H8V17H9V16H10V17H11V18H12V19H13V20H14V21H15V20H16V19H17V18H18V17H19V16H20V15H19V14H20V13H19V14H18V15H17V16H16V17H15V18H14V17H13V16H12V15H11V14H10V13ZM10 15V14H9V15H8V16H7V17H6V18H7V17H8V16H9V15H10ZM10 15V16H11V17H12V18H13V19H14V20H15V19H16V18H17V17H18V16H19V15H18V16H17V17H16V18H15V19H14V18H13V17H12V16H11V15H10Z" fill="currentColor"/>
            <path d="M8 11H7V12H6V13H5V15H6V14H7V13H8V12H9V11H10V12H11V13H12V14H13V15H14V16H15V15H16V14H17V13H18V12H19V11H20V9H19V10H18V11H17V12H16V13H15V14H14V13H13V12H12V11H11V10H10V9H9V10H8V11Z" fill="currentColor"/>
        </symbol>
        <symbol id='chart8' viewBox="0 0 25 25">
            <path fill-rule="evenodd" clip-rule="evenodd" d="M17 6V9H15H14V10V15V16H15H17V16.5V19H18V16.5V16H20H21V15V10V9H20H18V6H17ZM20 10H15V15H20V10Z" fill="currentColor"/>
            <path fill-rule="evenodd" clip-rule="evenodd" d="M7 3V4.5V6H5H4V7V18V19H5H7V22H8V19H10H11V18V7V6H10H8V4.5V3H7ZM6 7H5V8H6V9H5V10H6V11H5V12H6V13H5V14H6V15H5V16H6V17H5V18H6V17H7V18H8V17H9V18H10V17H9V16H10V15H9V14H10V13H9V12H10V11H9V10H10V9H9V8H10V7H9V8H8V7H7V8H6V7ZM7 9V8H8V9H7ZM7 10H6V9H7V10ZM8 10H7V11H6V12H7V13H6V14H7V15H6V16H7V17H8V16H9V15H8V14H9V13H8V12H9V11H8V10ZM8 10V9H9V10H8ZM8 11V12H7V11H8ZM8 13V14H7V13H8ZM8 15V16H7V15H8Z" fill="currentColor"/>
        </symbol>
        <symbol id='chart9' viewBox="0 0 25 25">
            <path d="M22 8H21V9H20V10H19V11H18V12H17V13H16V14H15V15H14V14H13V13H12V12H11V11H10V10H9V11H8V12H7V13H6V14H5V15H4V16H3V18H4V17H5V16H6V15H7V14H8V13H9V12H10V13H11V14H12V15H13V16H14V17H15V16H16V15H17V14H18V13H19V12H20V11H21V10H22V8Z" fill="currentColor"/>
        </symbol>
        <symbol id='chart10' viewBox="0 0 25 25">
            <path fill-rule="evenodd" clip-rule="evenodd" d="M23 8.5C23 9.15311 22.5826 9.70873 22 9.91465V10H21V11H20V12H19V13H18V14H17V15H16V16H15.9146C15.9699 16.1564 16 16.3247 16 16.5C16 17.3284 15.3284 18 14.5 18C13.6716 18 13 17.3284 13 16.5C13 16.3247 13.0301 16.1564 13.0854 16H13V15H12V14H11V13H10V12H9V13H8V14H7V15H6V16H5V17H4.91465C4.96992 17.1564 5 17.3247 5 17.5C5 18.3284 4.32843 19 3.5 19C2.67157 19 2 18.3284 2 17.5C2 16.8469 2.4174 16.2913 3 16.0854V16H4V15H5V14H6V13H7V12H8V11H8.08535C8.03008 10.8436 8 10.6753 8 10.5C8 9.67157 8.67157 9 9.5 9C10.3284 9 11 9.67157 11 10.5C11 10.6753 10.9699 10.8436 10.9146 11H11V12H12V13H13V14H14V15H15V14H16V13H17V12H18V11H19V10H20V9H20.0854C20.0301 8.84361 20 8.67532 20 8.5C20 7.67157 20.6716 7 21.5 7C22.3284 7 23 7.67157 23 8.5ZM10 10.5C10 10.7761 9.77614 11 9.5 11C9.22386 11 9 10.7761 9 10.5C9 10.2239 9.22386 10 9.5 10C9.77614 10 10 10.2239 10 10.5ZM21.5 9C21.7761 9 22 8.77614 22 8.5C22 8.22386 21.7761 8 21.5 8C21.2239 8 21 8.22386 21 8.5C21 8.77614 21.2239 9 21.5 9ZM15 16.5C15 16.7761 14.7761 17 14.5 17C14.2239 17 14 16.7761 14 16.5C14 16.2239 14.2239 16 14.5 16C14.7761 16 15 16.2239 15 16.5ZM3.5 18C3.77614 18 4 17.7761 4 17.5C4 17.2239 3.77614 17 3.5 17C3.22386 17 3 17.2239 3 17.5C3 17.7761 3.22386 18 3.5 18Z" fill="currentColor"/>
        </symbol>
        <symbol id='chart11' viewBox="0 0 25 25">
            <path d="M14 14H11V11H6V16H3V17H7V12H10V15H15V9H18V12H22V11H19V8H14V14Z" fill="currentColor"/>
        </symbol>
    </defs>
</svg>