<svg width="25" height="25" viewBox="0 0 25 25" fill="none" xmlns="http://www.w3.org/2000/svg">
<path fill-rule="evenodd" clip-rule="evenodd" d="M12.0759 17.9839L12.5 18.0162L12.9241 17.9839C14.1239 17.8927 15.2157 17.4167 16.0781 16.6771L16.4006 16.4006L16.6771 16.0781C17.4167 15.2157 17.8927 14.1239 17.9839 12.9241L18.0162 12.5L17.9839 12.0759C17.8927 10.8761 17.4167 9.78427 16.6771 8.92186L16.4006 8.59941L16.0781 8.32289C15.2157 7.58333 14.1239 7.10733 12.9241 7.01606L12.5 6.9838L12.0759 7.01606C10.8761 7.10733 9.78427 7.58333 8.92186 8.32289L8.59941 8.59941L8.32289 8.92186C7.58333 9.78427 7.10733 10.8761 7.01606 12.0759L6.9838 12.5L7.01606 12.9241C7.10733 14.1239 7.58333 15.2157 8.32289 16.0781L8.59941 16.4006L8.92186 16.6771C9.78427 17.4167 10.8761 17.8927 12.0759 17.9839ZM8.27089 17.4362L6.35355 19.3536L5.64645 18.6464L7.56379 16.7291C6.6905 15.7108 6.12689 14.4191 6.01894 13H4V12H6.01894C6.12689 10.5809 6.6905 9.28924 7.56379 8.27089L5.64645 6.35355L6.35355 5.64645L8.27089 7.56379C9.28924 6.6905 10.5809 6.12689 12 6.01894V4H13V6.01894C14.4191 6.12689 15.7108 6.6905 16.7291 7.56379L18.6464 5.64645L19.3536 6.35355L17.4362 8.27089C18.3095 9.28924 18.8731 10.5809 18.9811 12H21V13H18.9811C18.8731 14.4191 18.3095 15.7108 17.4362 16.7291L19.3536 18.6464L18.6464 19.3536L16.7291 17.4362C15.7108 18.3095 14.4191 18.8731 13 18.9811V21H12V18.9811C10.5809 18.8731 9.28924 18.3095 8.27089 17.4362Z" fill="black"/>
</svg>
