<svg width="25" height="25" viewBox="0 0 25 25" fill="none" xmlns="http://www.w3.org/2000/svg">
<path d="M20 7V9H19V11H20V10H21V8H22V7H20Z" fill="currentColor"/>
<path d="M5 16V18H3V17H4V15H5V14H6V16H5Z" fill="currentColor"/>
<path d="M7 10H8V8H9V7H10V8H11V10H12V11H10V9H9V11H7V10Z" fill="currentColor"/>
<path d="M17 15H18V14H16V16H15V14H13V15H14V17H15V18H16V17H17V15Z" fill="currentColor"/>
<path d="M5 12H6V13H5V12Z" fill="currentColor"/>
<path d="M4 12H3V13H4V12Z" fill="currentColor"/>
<path d="M7 12H8V13H7V12Z" fill="currentColor"/>
<path d="M10 12H9V13H10V12Z" fill="currentColor"/>
<path d="M11 12H12V13H11V12Z" fill="currentColor"/>
<path d="M14 12H13V13H14V12Z" fill="currentColor"/>
<path d="M15 12H16V13H15V12Z" fill="currentColor"/>
<path d="M18 12H17V13H18V12Z" fill="currentColor"/>
<path d="M19 12H20V13H19V12Z" fill="currentColor"/>
<path d="M22 12H21V13H22V12Z" fill="currentColor"/>
</svg>
