<svg width="25" height="25" viewBox="0 0 25 25" fill="none" xmlns="http://www.w3.org/2000/svg">
<path fill-rule="evenodd" clip-rule="evenodd" d="M10 4H9V5H8V6H7V7H6V8H5V9H6V10H5V11H6V10H7V9H8V8H9V7H10V8H11V9H12V10H13V11H14V12H15V11H16V10H17V9H18V8H19V7H20V6H19V5H20V4H19V5H18V6H17V7H16V8H15V9H14V8H13V7H12V6H11V5H10V4ZM10 6V5H9V6H8V7H7V8H6V9H7V8H8V7H9V6H10ZM10 6V7H11V8H12V9H13V10H14V11H15V10H16V9H17V8H18V7H19V6H18V7H17V8H16V9H15V10H14V9H13V8H12V7H11V6H10Z" fill="black"/>
<path fill-rule="evenodd" clip-rule="evenodd" d="M10 13H9V14H8V15H7V16H6V17H5V18H6V19H5V20H6V19H7V18H8V17H9V16H10V17H11V18H12V19H13V20H14V21H15V20H16V19H17V18H18V17H19V16H20V15H19V14H20V13H19V14H18V15H17V16H16V17H15V18H14V17H13V16H12V15H11V14H10V13ZM10 15V14H9V15H8V16H7V17H6V18H7V17H8V16H9V15H10ZM10 15V16H11V17H12V18H13V19H14V20H15V19H16V18H17V17H18V16H19V15H18V16H17V17H16V18H15V19H14V18H13V17H12V16H11V15H10Z" fill="black"/>
<path d="M8 11H7V12H6V13H5V15H6V14H7V13H8V12H9V11H10V12H11V13H12V14H13V15H14V16H15V15H16V14H17V13H18V12H19V11H20V9H19V10H18V11H17V12H16V13H15V14H14V13H13V12H12V11H11V10H10V9H9V10H8V11Z" fill="black"/>
</svg>
