<svg width="25" height="25" viewBox="0 0 25 25" fill="none" xmlns="http://www.w3.org/2000/svg">
<path fill-rule="evenodd" clip-rule="evenodd" d="M17 6V9H15H14V10V15V16H15H17V16.5V19H18V16.5V16H20H21V15V10V9H20H18V6H17ZM20 10H15V15H20V10Z" fill="black"/>
<path fill-rule="evenodd" clip-rule="evenodd" d="M7 3V4.5V6H5H4V7V18V19H5H7V22H8V19H10H11V18V7V6H10H8V4.5V3H7ZM6 7H5V8H6V9H5V10H6V11H5V12H6V13H5V14H6V15H5V16H6V17H5V18H6V17H7V18H8V17H9V18H10V17H9V16H10V15H9V14H10V13H9V12H10V11H9V10H10V9H9V8H10V7H9V8H8V7H7V8H6V7ZM7 9V8H8V9H7ZM7 10H6V9H7V10ZM8 10H7V11H6V12H7V13H6V14H7V15H6V16H7V17H8V16H9V15H8V14H9V13H8V12H9V11H8V10ZM8 10V9H9V10H8ZM8 11V12H7V11H8ZM8 13V14H7V13H8ZM8 15V16H7V15H8Z" fill="black"/>
</svg>
