<svg width="25" height="25" viewBox="0 0 25 25" fill="none" xmlns="http://www.w3.org/2000/svg">
<path fill-rule="evenodd" clip-rule="evenodd" d="M23 8.5C23 9.15311 22.5826 9.70873 22 9.91465V10H21V11H20V12H19V13H18V14H17V15H16V16H15.9146C15.9699 16.1564 16 16.3247 16 16.5C16 17.3284 15.3284 18 14.5 18C13.6716 18 13 17.3284 13 16.5C13 16.3247 13.0301 16.1564 13.0854 16H13V15H12V14H11V13H10V12H9V13H8V14H7V15H6V16H5V17H4.91465C4.96992 17.1564 5 17.3247 5 17.5C5 18.3284 4.32843 19 3.5 19C2.67157 19 2 18.3284 2 17.5C2 16.8469 2.4174 16.2913 3 16.0854V16H4V15H5V14H6V13H7V12H8V11H8.08535C8.03008 10.8436 8 10.6753 8 10.5C8 9.67157 8.67157 9 9.5 9C10.3284 9 11 9.67157 11 10.5C11 10.6753 10.9699 10.8436 10.9146 11H11V12H12V13H13V14H14V15H15V14H16V13H17V12H18V11H19V10H20V9H20.0854C20.0301 8.84361 20 8.67532 20 8.5C20 7.67157 20.6716 7 21.5 7C22.3284 7 23 7.67157 23 8.5ZM10 10.5C10 10.7761 9.77614 11 9.5 11C9.22386 11 9 10.7761 9 10.5C9 10.2239 9.22386 10 9.5 10C9.77614 10 10 10.2239 10 10.5ZM21.5 9C21.7761 9 22 8.77614 22 8.5C22 8.22386 21.7761 8 21.5 8C21.2239 8 21 8.22386 21 8.5C21 8.77614 21.2239 9 21.5 9ZM15 16.5C15 16.7761 14.7761 17 14.5 17C14.2239 17 14 16.7761 14 16.5C14 16.2239 14.2239 16 14.5 16C14.7761 16 15 16.2239 15 16.5ZM3.5 18C3.77614 18 4 17.7761 4 17.5C4 17.2239 3.77614 17 3.5 17C3.22386 17 3 17.2239 3 17.5C3 17.7761 3.22386 18 3.5 18Z" fill="currentColor"/>
</svg>
